<?xml version="1.0" encoding="UTF-8"?>
<svg version="1.1" viewBox="0 0 2048 858" width="2048" height="858" xmlns="http://www.w3.org/2000/svg">
<path transform="translate(0)" d="m0 0h2048v858h-2048z" fill="#FEFEFE"/>
<path transform="translate(109,121)" d="m0 0h17l32 6 24 7 24 9 21 10 22 13 17 12 14 11 13 11 12 11 25 25 7 8 12 14 13 17 11 15 18 27 12 20 10 18 12 23 14 30 15 36 13 35 12 37 2-3 15-40 12-28 14-29 10-19 14-24 12-19 11-16 12-16 8-10 11-13 9-10 7-8 15-15 8-7 14-12 20-15 15-10 15-9 18-10 29-13 28-10 27-7 26-4 11 1 6 4 3 4 1 3v17l-4 17-8 16-7 9-7 7-13 8-12 5-22 5-24 6-23 8-18 8-21 11-14 9-19 14-14 13-5 4-1 2h-2l-2 4-10 10-9 11-13 17-11 17-9 15-12 22-13 28-12 31-9 27-10 37-9 41-8 47-3 19-5 16-8 14-10 12-10 8-8 4-4 1h-7l-7-4-6-10-5-22-9-42-10-39-11-36-10-30-13-33-13-30-14-29-12-22-16-27-14-22-21-28-11-13-12-14-9-9v-2h-2v-2h-2v-2l-4-2-10-10-11-9-13-11-18-13-19-12-27-14-21-8-20-6-21-4-19-2-8-3-5-5-2-5v-12l4-18 5-12 6-11 9-11 8-8 10-6z" fill="#21AC4A"/>
<path transform="translate(1484,351)" d="m0 0h26l21 3 20 6 16 7 16 10 14 12 9 10 10 15 8 16 6 18 3 16 1 9v25l-1 10-199 1 5 15 7 11 10 10 14 8 10 4 15 3h25l18-4 15-6 6-3h69l-3 10-8 16-8 11-12 12-15 10-18 8-18 5-19 3-25 1-25-2-23-5-19-7-16-8-13-9-14-12-11-13-10-16-7-15-5-18-2-11-1-11v-18l2-18 5-19 8-19 10-16 12-14 7-7 13-10 16-9 19-8 20-5z" fill="#040606"/>
<path transform="translate(752,351)" d="m0 0h26l21 3 17 5 17 7 15 9 12 9v2l4 2 10 11 10 15 8 16 6 18 3 16 1 8v26l-1 10h-199l3 11 6 12 9 10 7 6 15 8 15 4 6 1h26l17-4 15-6 6-3h69l-3 10-8 16-8 11-12 12-15 10-18 8-18 5-19 3-25 1-25-2-23-5-19-7-19-10-14-10-13-12-10-13-9-15-6-14-5-17-2-11-1-11v-19l3-21 5-18 10-21 8-12 11-13 7-7 18-13 17-9 16-6 17-4z" fill="#040606"/>
<path transform="translate(1638,355)" d="m0 0h86l14 19 26 36 14 19v2h3l2-4 13-18 14-19 16-21 10-14h82l-6 9-9 11-14 19-10 13-13 17-10 13-16 21-18 24 1 5 10 13 16 21 14 19 14 18 12 16 16 21 12 16 13 17 16 21 24 32 13 17 29 38v1h-87l-13-17-28-38-16-21-10-14-14-19-21-28-42-57-4-4-14 19-12 16-28 38-5 7h-83l2-4 12-16 13-17 10-13 32-42 26-34 5-7-6-9-14-18-14-19-12-16-14-19-14-18-10-14-13-17z" fill="#21AB49"/>
<path transform="translate(1186,297)" d="m0 0h76l1 63 65 1v58l-6 1h-59v111l2 15 4 8 1 3 15 6 15 2 27 1h10l1 1v23l-1 31-49 2-22-1-20-4-13-5-13-7-12-11-7-8-8-15-5-17-2-14-1-121h-38l-2-1v-58h41z" fill="#040606"/>
<path transform="translate(1098,351)" d="m0 0h13v70h-21l-17 2-12 4-11 6-10 9-7 10-5 12-3 15-1 139-1 1h-76v-264h73l1 33 9-10 8-7 15-9 17-6 18-4z" fill="#040606"/>
<path transform="translate(483,185)" d="m0 0h10l20 11v2l4 1 12 7 16 9 9 5v2l3 1 3 7v68l-4 9-5 4-10 6-11 6-16 10-11 6-8 5-9 1-10-4-22-13-13-8-17-10-5-5-2-6v-71l5-8 12-6 11-7h3v-2l6-3 14-8 10-6z" fill="#22B14C"/>
<path transform="translate(1486,409)" d="m0 0h22l16 4 11 6 10 8 8 10 6 12 3 10v5h-130l3-14 8-16 8-9 13-9 13-5z" fill="#FEFEFE"/>
<path transform="translate(755,409)" d="m0 0h21l16 4 11 6 10 8 8 10 6 12 3 10v5h-129l-1-2 3-12 8-16 8-9 13-9 13-5z" fill="#FEFEFE"/>
<path transform="translate(1633,648)" d="m0 0h15l9 16 9 15 13 22 2 5 4-4 10-18 13-22 8-13 1-1h13l1 33v56h-16l-1-57-11 19-17 28h-8l-15-25-13-21-1 56h-16z" fill="#040606"/>
<path transform="translate(1544,648)" d="m0 0h65v13l-48 1-1 23h43v13l-42 1v24l49 1 1 1v12h-67z" fill="#040606"/>
<path transform="translate(1781,647)" d="m0 0h19l12 3 8 4-3 9-2 4-14-5-5-1h-12l-8 3-4 5v6l5 5 11 4 21 6 9 6 4 5 2 8-1 10-3 6-4 5-8 5-12 3h-17l-16-4-9-5-1-3 5-11 15 7 13 2 12-1 7-4 1-2v-8l-1-3-5-2-28-8-10-5-5-6-2-4v-14l4-8 5-5 7-4z" fill="#040606"/>
<path transform="translate(1230,647)" d="m0 0h18l12 3 8 4-1 6-3 7-6-2-13-4h-13l-8 3-3 4v8l4 4 32 10 9 5 5 7 1 3v13l-4 8-8 7-10 4-5 1h-17l-16-4-10-5 1-6 4-8 12 6 14 3h8l10-3 3-1 1-10-5-5-32-10-9-6-4-5-2-9 1-9 4-8 7-6 10-4z" fill="#040606"/>
<path transform="translate(1400,647)" d="m0 0h18l12 3 8 4-1 6-3 7-6-2-13-4h-13l-8 3-3 4v8l4 4 32 10 9 5 5 7 1 3v13l-4 8-8 7-10 4-5 1h-17l-16-4-10-5 1-6 4-8 12 6 14 3h8l10-3 3-3 1-2v-6l-5-5-32-10-9-6-4-5-2-9 1-9 4-8 7-6 10-4z" fill="#040606"/>
<path transform="translate(1279,648)" d="m0 0h17l6 9 19 32h2l15-25 10-16h16l-5 10-17 28-11 18-1 33h-17l-1-32-17-29-9-15-7-12z" fill="#040606"/>
<path transform="translate(1451,648)" d="m0 0h75v13h-29v76h-17v-76h-28l-1-1z" fill="#040606"/>
</svg>
